#N canvas 971 139 450 300 10;
#X declare -lib mrpeach;
#X msg 291 73 devices;
#X msg 295 108 open 6 \, baud 57600;
#X msg 51 37 /led 1 3;
#X obj 171 241 print;
#X obj 266 218 tof/from_ascii_code 13;
#X obj 181 153 o.io.slipserial;
#X floatatom 167 73 5 0 0 0 - - -;
#X msg 155 113 44 32 \$1 255 192 1;
#X msg 209 70 46;
#X msg 323 135 close;
#X obj 48 224 print slip;
#X connect 0 0 5 1;
#X connect 1 0 5 1;
#X connect 4 0 3 0;
#X connect 5 0 10 0;
#X connect 6 0 7 0;
#X connect 7 0 5 0;
#X connect 8 0 7 0;
#X connect 9 0 5 1;
