#N canvas 592 276 575 418 10;
#X msg 169 197 devices;
#X msg 173 232 open 6 \, baud 57600;
#X floatatom 74 88 5 0 0 0 - - -;
#X msg 73 114 44 32 \$1 255 192 1;
#X msg 175 276 close;
#N canvas 187 153 1136 520 slipserial 0;
#X obj 29 234 mrpeach/slipdec 65536;
#X obj 26 105 mrpeach/slipenc 65536;
#X obj 25 36 inlet;
#X obj 26 270 outlet;
#X obj 35 197 comport;
#X obj 22 72 route float int list;
#X obj 311 209 print slipserial;
#X connect 0 0 3 0;
#X connect 1 0 4 0;
#X connect 2 0 5 0;
#X connect 4 0 0 0;
#X connect 4 1 6 0;
#X connect 5 0 1 0;
#X connect 5 1 1 0;
#X connect 5 2 1 0;
#X connect 5 3 4 0;
#X restore 74 328 pd slipserial;
#X obj 74 368 print received;
#X msg 106 143 9 32 201 202 255 192 1;
#X text 224 198 List devices (very slow);
#X text 296 231 Open port and set baud;
#X text 213 278 Close port;
#X text 219 104 Send SLIP data;
#X text 65 31 To test \, upload "slip_echo" into your platform (i.e.
Arduino \, Wiring \, Teensy).;
#X connect 0 0 5 0;
#X connect 1 0 5 0;
#X connect 2 0 3 0;
#X connect 3 0 5 0;
#X connect 4 0 5 0;
#X connect 5 0 6 0;
#X connect 7 0 5 0;
